<mxfile host="app.diagrams.net" modified="2023-06-05T19:57:04.626Z" agent="Mozilla/5.0 (Windows NT 10.0; Win64; x64; rv:109.0) Gecko/20100101 Firefox/113.0" etag="cTS6Dnutr82QfI3RWY60" version="21.3.7" type="github">
  <diagram name="P치gina-1" id="-hk824d3F9InkVByVrSe">
    <mxGraphModel dx="1114" dy="602" grid="1" gridSize="10" guides="1" tooltips="1" connect="1" arrows="1" fold="1" page="1" pageScale="1" pageWidth="827" pageHeight="1169" math="0" shadow="0">
      <root>
        <mxCell id="0" />
        <mxCell id="1" parent="0" />
        <mxCell id="SZfHbXN-3W81S4ZybHQ--1" value="bibliotec치rio" style="shape=umlActor;verticalLabelPosition=bottom;verticalAlign=top;html=1;strokeColor=default;" parent="1" vertex="1">
          <mxGeometry x="360" y="230" width="30" height="60" as="geometry" />
        </mxCell>
        <mxCell id="SZfHbXN-3W81S4ZybHQ--6" style="rounded=0;orthogonalLoop=1;jettySize=auto;html=1;strokeColor=default;jumpStyle=none;startArrow=none;startFill=0;strokeWidth=1;shadow=0;endArrow=none;endFill=0;" parent="1" source="SZfHbXN-3W81S4ZybHQ--2" edge="1">
          <mxGeometry relative="1" as="geometry">
            <mxPoint x="380" y="270" as="targetPoint" />
          </mxGeometry>
        </mxCell>
        <mxCell id="SZfHbXN-3W81S4ZybHQ--2" value="cadastrar livros" style="ellipse;whiteSpace=wrap;html=1;" parent="1" vertex="1">
          <mxGeometry x="490" y="230" width="120" height="80" as="geometry" />
        </mxCell>
        <mxCell id="SZfHbXN-3W81S4ZybHQ--8" style="edgeStyle=orthogonalEdgeStyle;rounded=0;orthogonalLoop=1;jettySize=auto;html=1;endArrow=none;endFill=0;" parent="1" source="SZfHbXN-3W81S4ZybHQ--7" edge="1">
          <mxGeometry relative="1" as="geometry">
            <mxPoint x="370" y="320" as="targetPoint" />
            <Array as="points">
              <mxPoint x="371" y="380" />
              <mxPoint x="371" y="320" />
            </Array>
          </mxGeometry>
        </mxCell>
        <mxCell id="SZfHbXN-3W81S4ZybHQ--7" value="cadastrar clientes" style="ellipse;whiteSpace=wrap;html=1;" parent="1" vertex="1">
          <mxGeometry x="490" y="340" width="120" height="80" as="geometry" />
        </mxCell>
        <mxCell id="SZfHbXN-3W81S4ZybHQ--10" style="edgeStyle=orthogonalEdgeStyle;rounded=0;orthogonalLoop=1;jettySize=auto;html=1;endArrow=none;endFill=0;" parent="1" source="SZfHbXN-3W81S4ZybHQ--9" edge="1">
          <mxGeometry relative="1" as="geometry">
            <mxPoint x="370" y="220" as="targetPoint" />
          </mxGeometry>
        </mxCell>
        <mxCell id="SZfHbXN-3W81S4ZybHQ--9" value="cadastrar local" style="ellipse;whiteSpace=wrap;html=1;" parent="1" vertex="1">
          <mxGeometry x="490" y="120" width="120" height="80" as="geometry" />
        </mxCell>
        <mxCell id="SZfHbXN-3W81S4ZybHQ--15" style="edgeStyle=orthogonalEdgeStyle;rounded=0;orthogonalLoop=1;jettySize=auto;html=1;dashed=1;" parent="1" source="SZfHbXN-3W81S4ZybHQ--11" edge="1">
          <mxGeometry relative="1" as="geometry">
            <mxPoint x="340" y="320" as="targetPoint" />
          </mxGeometry>
        </mxCell>
        <mxCell id="SZfHbXN-3W81S4ZybHQ--11" value="bibliotec치rio" style="shape=umlActor;verticalLabelPosition=bottom;verticalAlign=top;html=1;strokeColor=default;" parent="1" vertex="1">
          <mxGeometry x="360" y="460" width="30" height="60" as="geometry" />
        </mxCell>
        <mxCell id="SZfHbXN-3W81S4ZybHQ--14" style="edgeStyle=orthogonalEdgeStyle;rounded=0;orthogonalLoop=1;jettySize=auto;html=1;endArrow=none;endFill=0;" parent="1" source="SZfHbXN-3W81S4ZybHQ--12" edge="1">
          <mxGeometry relative="1" as="geometry">
            <mxPoint x="400" y="499.9999999999999" as="targetPoint" />
          </mxGeometry>
        </mxCell>
        <mxCell id="SZfHbXN-3W81S4ZybHQ--12" value="cadastrar funcion치rios" style="ellipse;whiteSpace=wrap;html=1;" parent="1" vertex="1">
          <mxGeometry x="490" y="460" width="120" height="80" as="geometry" />
        </mxCell>
        <mxCell id="SZfHbXN-3W81S4ZybHQ--17" style="edgeStyle=orthogonalEdgeStyle;rounded=0;orthogonalLoop=1;jettySize=auto;html=1;entryX=1;entryY=0.5;entryDx=0;entryDy=0;endArrow=none;endFill=0;" parent="1" source="SZfHbXN-3W81S4ZybHQ--16" target="SZfHbXN-3W81S4ZybHQ--7" edge="1">
          <mxGeometry relative="1" as="geometry" />
        </mxCell>
        <mxCell id="SZfHbXN-3W81S4ZybHQ--16" value="validar CPF" style="ellipse;whiteSpace=wrap;html=1;" parent="1" vertex="1">
          <mxGeometry x="690" y="340" width="120" height="80" as="geometry" />
        </mxCell>
      </root>
    </mxGraphModel>
  </diagram>
</mxfile>
